<svg width="160" height="48" viewBox="0 0 160 48" fill="none" xmlns="http://www.w3.org/2000/svg">
<path d="M12 36V28H20L12 36ZM28 36L20 28H28V36ZM24 14.4004V20H28V28L20 20L12 28V20H16V14.4004L18.4004 12H21.5996L24 14.4004Z" fill="#60FF40"/>
<path d="M38.5326 17H47.3726V19.52H41.1726V22.72H47.1326V25.24H41.1726V28.48H47.6126V31H38.5326V17ZM52.6587 17L55.0187 22.72H55.4987L57.8587 17H60.7187L57.8387 23.8V24.16L60.7187 31H57.8587L55.4987 25.24H55.0187L52.6587 31H49.7987L52.6787 24.16V23.8L49.7987 17H52.6587ZM63.0248 17H71.8648V19.52H65.6648V22.72H71.6248V25.24H65.6648V28.48H72.1048V31H63.0248V17ZM84.4909 31H81.8509V26.8C81.8509 26.48 81.7642 26.22 81.5909 26.02C81.4309 25.82 81.1575 25.72 80.7709 25.72H77.7309V31H75.0909V17H80.4509C81.1709 17 81.8042 17.1 82.3509 17.3C82.8975 17.5 83.3509 17.78 83.7109 18.14C84.0842 18.4867 84.3642 18.8933 84.5509 19.36C84.7509 19.8267 84.8509 20.3267 84.8509 20.86V21.34C84.8509 21.9133 84.6975 22.4533 84.3909 22.96C84.0842 23.4533 83.6109 23.8333 82.9709 24.1V24.46C83.4375 24.5133 83.8042 24.6933 84.0709 25C84.3509 25.3067 84.4909 25.6933 84.4909 26.16V31ZM77.7309 23.2H80.2509C80.8909 23.2 81.3775 23.0533 81.7109 22.76C82.0442 22.4533 82.2109 22.0267 82.2109 21.48V21.24C82.2109 20.7733 82.0442 20.3733 81.7109 20.04C81.3775 19.6933 80.8909 19.52 80.2509 19.52H77.7309V23.2ZM92.037 28.88C92.5436 28.88 92.957 28.8067 93.277 28.66C93.6103 28.5 93.8636 28.2933 94.037 28.04C94.2236 27.7733 94.3503 27.4733 94.417 27.14C94.4836 26.7933 94.517 26.44 94.517 26.08V25.72H97.157V26.08C97.157 27.7467 96.717 29.0333 95.837 29.94C94.9703 30.8333 93.7036 31.28 92.037 31.28C90.437 31.28 89.1703 30.7933 88.237 29.82C87.3036 28.8467 86.837 27.4267 86.837 25.56V22.44C86.837 21.5467 86.957 20.7467 87.197 20.04C87.437 19.32 87.7836 18.72 88.237 18.24C88.6903 17.7467 89.237 17.3733 89.877 17.12C90.517 16.8533 91.237 16.72 92.037 16.72C92.8636 16.72 93.597 16.84 94.237 17.08C94.877 17.32 95.4103 17.6667 95.837 18.12C96.277 18.5733 96.6036 19.12 96.817 19.76C97.0436 20.4 97.157 21.12 97.157 21.92V22.28H94.517V21.92C94.517 21.5867 94.477 21.2533 94.397 20.92C94.317 20.5867 94.1836 20.2867 93.997 20.02C93.8103 19.7533 93.557 19.54 93.237 19.38C92.917 19.2067 92.517 19.12 92.037 19.12C91.597 19.12 91.217 19.2067 90.897 19.38C90.577 19.54 90.3103 19.7667 90.097 20.06C89.8836 20.34 89.7236 20.6733 89.617 21.06C89.5236 21.4333 89.477 21.8267 89.477 22.24V25.76C89.477 26.2133 89.5236 26.6333 89.617 27.02C89.7103 27.3933 89.857 27.72 90.057 28C90.257 28.28 90.517 28.5 90.837 28.66C91.1703 28.8067 91.5703 28.88 92.037 28.88ZM99.343 17H101.983V22.72H106.503V17H109.143V31H106.503V25.24H101.983V31H99.343V17ZM112.009 17H120.849V19.52H114.649V22.72H120.609V25.24H114.649V28.48H121.089V31H112.009V17ZM128.775 28.88C129.282 28.88 129.695 28.8067 130.015 28.66C130.349 28.5 130.602 28.2933 130.775 28.04C130.962 27.7733 131.089 27.4733 131.155 27.14C131.222 26.7933 131.255 26.44 131.255 26.08V25.72H133.895V26.08C133.895 27.7467 133.455 29.0333 132.575 29.94C131.709 30.8333 130.442 31.28 128.775 31.28C127.175 31.28 125.909 30.7933 124.975 29.82C124.042 28.8467 123.575 27.4267 123.575 25.56V22.44C123.575 21.5467 123.695 20.7467 123.935 20.04C124.175 19.32 124.522 18.72 124.975 18.24C125.429 17.7467 125.975 17.3733 126.615 17.12C127.255 16.8533 127.975 16.72 128.775 16.72C129.602 16.72 130.335 16.84 130.975 17.08C131.615 17.32 132.149 17.6667 132.575 18.12C133.015 18.5733 133.342 19.12 133.555 19.76C133.782 20.4 133.895 21.12 133.895 21.92V22.28H131.255V21.92C131.255 21.5867 131.215 21.2533 131.135 20.92C131.055 20.5867 130.922 20.2867 130.735 20.02C130.549 19.7533 130.295 19.54 129.975 19.38C129.655 19.2067 129.255 19.12 128.775 19.12C128.335 19.12 127.955 19.2067 127.635 19.38C127.315 19.54 127.049 19.7667 126.835 20.06C126.622 20.34 126.462 20.6733 126.355 21.06C126.262 21.4333 126.215 21.8267 126.215 22.24V25.76C126.215 26.2133 126.262 26.6333 126.355 27.02C126.449 27.3933 126.595 27.72 126.795 28C126.995 28.28 127.255 28.5 127.575 28.66C127.909 28.8067 128.309 28.88 128.775 28.88ZM139.041 31H136.401V17H139.041V22.74H139.621L143.321 17H146.301V17.12L141.981 23.82V24.18L146.541 30.88V31H143.441L139.621 25.26H139.041V31Z" fill="#60FF40"/>
</svg>
